# xmcd
#
# Track frame offsets: 
#        150
#        14226
#        30700
#        47906
#        62336
#        75268
#        91578
#        105688
#        125505
#
# Disc length: 1901 seconds
#
# Revision: 0
# Processed by: cddbd v1.5.2PL0 Copyright (c) Steve Scherf et al.
# Submitted via: ExactAudioCopy v1.0b3
#
DISCID=67076b09
DTITLE=Andrew Bristow - Nine Lives
DYEAR=2013
DGENRE=Blues
TTITLE0=Came So Far
TTITLE1=About You
TTITLE2=Questions
TTITLE3=Don't Need Your Advice
TTITLE4=Believer
TTITLE5=Soul To Sell
TTITLE6=Secrets
TTITLE7=Out Of The Blues
TTITLE8=Talk Of The Town
EXTD=
EXTT0=
EXTT1=
EXTT2=
EXTT3=
EXTT4=
EXTT5=
EXTT6=
EXTT7=
EXTT8=
PLAYORDER=
